# xmcd
#
# Track frame offsets: 
#        150
#        15187
#        40869
#        59893
#        89899
#        109568
#        121836
#        137797
#        165143
#        180240
#        197354
#        211632
#        232183
#        247127
#        263778
#        279382
#        295387
#        320748
#        335068
#
# Disc length: 4694 seconds
#
# Revision: 0
# Processed by: cddbd v1.5.2PL0 Copyright (c) Steve Scherf et al.
# Submitted via: ExactAudioCopy v0.99pb5
#
DISCID=15125413
DTITLE=Various Artist - Blues autour du zinc 2012
DYEAR=2012
DGENRE=
TTITLE0=Steve Hill - Love got us blind
TTITLE1=Shakewater - Down to Louisiana
TTITLE2=Shane Murphy - Done in the dark
TTITLE3=Breakestra - Low down stank
TTITLE4=Nadeah - Suddenly afternoons
TTITLE5=Hillbilly Moon Explosion - Broken Heart
TTITLE6=Phoebe Killdeer - The fade out line
TTITLE7=Martha High - I'm a good woman
TTITLE8=In Volt - Bang Elvis
TTITLE9=Mathis Haug - Birthday cake
TTITLE10=Andres Roots Roundabout - Dead man stomp
TTITLE11=Rob Tognoni - Shakin' the devil's hands
TTITLE12=Dan Melrose - Down hill
TTITLE13=Big Rude Jake - Gotham City serenade
TTITLE14=Olivier Gotti - Little boy child
TTITLE15=Ghost Highway - Going up the country
TTITLE16=Alexx and Moonshiners - Whole Lotta Rosie
TTITLE17=Manacoustic - The rabbit
TTITLE18=My Serenade - Sweet poor bobo
EXTD=
EXTT0=
EXTT1=
EXTT2=
EXTT3=
EXTT4=
EXTT5=
EXTT6=
EXTT7=
EXTT8=
EXTT9=
EXTT10=
EXTT11=
EXTT12=
EXTT13=
EXTT14=
EXTT15=
EXTT16=
EXTT17=
EXTT18=
PLAYORDER=
